<mxfile host="65bd71144e">
    <diagram id="pPyVunfj3Msd3YoQSqLr" name="Otel overview">
        <mxGraphModel dx="2246" dy="560" grid="1" gridSize="10" guides="1" tooltips="1" connect="1" arrows="1" fold="1" page="1" pageScale="1" pageWidth="827" pageHeight="1169" math="0" shadow="0">
            <root>
                <mxCell id="0"/>
                <mxCell id="1" parent="0"/>
                <mxCell id="FP1shLl4b8RgJX5i1YDF-84" style="edgeStyle=orthogonalEdgeStyle;jumpStyle=arc;html=1;entryX=1;entryY=0.5;entryDx=0;entryDy=0;startArrow=none;startFill=0;exitX=0.5;exitY=1;exitDx=0;exitDy=0;" edge="1" parent="1" source="FP1shLl4b8RgJX5i1YDF-83" target="FP1shLl4b8RgJX5i1YDF-79">
                    <mxGeometry relative="1" as="geometry"/>
                </mxCell>
                <mxCell id="FP1shLl4b8RgJX5i1YDF-83" value="" style="rounded=0;whiteSpace=wrap;html=1;dashed=1;" vertex="1" parent="1">
                    <mxGeometry x="780" y="42" width="340" height="208" as="geometry"/>
                </mxCell>
                <mxCell id="FP1shLl4b8RgJX5i1YDF-63" style="edgeStyle=none;html=1;" edge="1" parent="1" source="59" target="63">
                    <mxGeometry relative="1" as="geometry"/>
                </mxCell>
                <mxCell id="FP1shLl4b8RgJX5i1YDF-80" style="edgeStyle=orthogonalEdgeStyle;jumpStyle=arc;html=1;startArrow=none;startFill=0;entryX=0;entryY=0.5;entryDx=0;entryDy=0;exitX=0.5;exitY=1;exitDx=0;exitDy=0;" edge="1" parent="1" source="59" target="FP1shLl4b8RgJX5i1YDF-79">
                    <mxGeometry relative="1" as="geometry"/>
                </mxCell>
                <mxCell id="59" value="Palprimes" style="rounded=1;whiteSpace=wrap;html=1;" vertex="1" parent="1">
                    <mxGeometry x="230" y="110" width="120" height="60" as="geometry"/>
                </mxCell>
                <mxCell id="62" style="edgeStyle=none;html=1;" edge="1" parent="1" source="60" target="59">
                    <mxGeometry relative="1" as="geometry"/>
                </mxCell>
                <mxCell id="60" value="App" style="rounded=1;whiteSpace=wrap;html=1;" vertex="1" parent="1">
                    <mxGeometry x="60" y="110" width="110" height="60" as="geometry"/>
                </mxCell>
                <mxCell id="61" value="Pal" style="rounded=1;whiteSpace=wrap;html=1;" vertex="1" parent="1">
                    <mxGeometry x="980" y="70" width="120" height="60" as="geometry"/>
                </mxCell>
                <mxCell id="FP1shLl4b8RgJX5i1YDF-67" style="edgeStyle=none;html=1;entryX=0;entryY=0.5;entryDx=0;entryDy=0;startArrow=classic;startFill=0;" edge="1" parent="1" source="63" target="FP1shLl4b8RgJX5i1YDF-65">
                    <mxGeometry relative="1" as="geometry"/>
                </mxCell>
                <mxCell id="FP1shLl4b8RgJX5i1YDF-81" style="edgeStyle=none;jumpStyle=arc;html=1;entryX=0.5;entryY=0;entryDx=0;entryDy=0;startArrow=none;startFill=0;" edge="1" parent="1" source="63" target="FP1shLl4b8RgJX5i1YDF-79">
                    <mxGeometry relative="1" as="geometry"/>
                </mxCell>
                <mxCell id="63" value="Palprimes&lt;br&gt;Sidecar" style="rounded=1;whiteSpace=wrap;html=1;" vertex="1" parent="1">
                    <mxGeometry x="410" y="110" width="120" height="60" as="geometry"/>
                </mxCell>
                <mxCell id="FP1shLl4b8RgJX5i1YDF-68" style="edgeStyle=none;html=1;exitX=1;exitY=0.75;exitDx=0;exitDy=0;startArrow=classic;startFill=0;entryX=0;entryY=0.5;entryDx=0;entryDy=0;" edge="1" parent="1" source="63" target="FP1shLl4b8RgJX5i1YDF-64">
                    <mxGeometry relative="1" as="geometry">
                        <mxPoint x="560" y="250" as="targetPoint"/>
                    </mxGeometry>
                </mxCell>
                <mxCell id="FP1shLl4b8RgJX5i1YDF-64" value="result" style="shape=process;whiteSpace=wrap;html=1;backgroundOutline=1;" vertex="1" parent="1">
                    <mxGeometry x="600" y="165" width="120" height="30" as="geometry"/>
                </mxCell>
                <mxCell id="FP1shLl4b8RgJX5i1YDF-71" style="edgeStyle=none;html=1;" edge="1" parent="1" source="FP1shLl4b8RgJX5i1YDF-65">
                    <mxGeometry relative="1" as="geometry">
                        <mxPoint x="780" y="100" as="targetPoint"/>
                    </mxGeometry>
                </mxCell>
                <mxCell id="FP1shLl4b8RgJX5i1YDF-65" value="receivenr." style="shape=process;whiteSpace=wrap;html=1;backgroundOutline=1;" vertex="1" parent="1">
                    <mxGeometry x="600" y="85" width="120" height="30" as="geometry"/>
                </mxCell>
                <mxCell id="FP1shLl4b8RgJX5i1YDF-66" value="Prime" style="rounded=1;whiteSpace=wrap;html=1;" vertex="1" parent="1">
                    <mxGeometry x="980" y="160" width="120" height="60" as="geometry"/>
                </mxCell>
                <mxCell id="FP1shLl4b8RgJX5i1YDF-77" style="edgeStyle=none;html=1;entryX=0;entryY=0.5;entryDx=0;entryDy=0;startArrow=classic;startFill=0;" edge="1" parent="1" source="FP1shLl4b8RgJX5i1YDF-69" target="61">
                    <mxGeometry relative="1" as="geometry"/>
                </mxCell>
                <mxCell id="FP1shLl4b8RgJX5i1YDF-69" value="Pal &lt;br&gt;Sidecar" style="rounded=1;whiteSpace=wrap;html=1;" vertex="1" parent="1">
                    <mxGeometry x="800" y="70" width="120" height="60" as="geometry"/>
                </mxCell>
                <mxCell id="FP1shLl4b8RgJX5i1YDF-76" style="edgeStyle=none;html=1;entryX=1;entryY=0.75;entryDx=0;entryDy=0;" edge="1" parent="1" target="FP1shLl4b8RgJX5i1YDF-64">
                    <mxGeometry relative="1" as="geometry">
                        <mxPoint x="780" y="188" as="sourcePoint"/>
                    </mxGeometry>
                </mxCell>
                <mxCell id="FP1shLl4b8RgJX5i1YDF-78" style="edgeStyle=none;html=1;startArrow=classic;startFill=0;" edge="1" parent="1" source="FP1shLl4b8RgJX5i1YDF-70" target="FP1shLl4b8RgJX5i1YDF-66">
                    <mxGeometry relative="1" as="geometry"/>
                </mxCell>
                <mxCell id="FP1shLl4b8RgJX5i1YDF-70" value="Prime&lt;br&gt;Sidecar" style="rounded=1;whiteSpace=wrap;html=1;" vertex="1" parent="1">
                    <mxGeometry x="800" y="160" width="120" height="60" as="geometry"/>
                </mxCell>
                <mxCell id="FP1shLl4b8RgJX5i1YDF-86" style="edgeStyle=orthogonalEdgeStyle;jumpStyle=arc;html=1;entryX=0.5;entryY=0;entryDx=0;entryDy=0;startArrow=none;startFill=0;" edge="1" parent="1" source="FP1shLl4b8RgJX5i1YDF-79" target="FP1shLl4b8RgJX5i1YDF-85">
                    <mxGeometry relative="1" as="geometry"/>
                </mxCell>
                <mxCell id="FP1shLl4b8RgJX5i1YDF-79" value="OpenTelemetry&lt;br&gt;Collector" style="rounded=1;whiteSpace=wrap;html=1;" vertex="1" parent="1">
                    <mxGeometry x="400" y="290" width="140" height="90" as="geometry"/>
                </mxCell>
                <mxCell id="FP1shLl4b8RgJX5i1YDF-85" value="Zipkin" style="rounded=1;whiteSpace=wrap;html=1;" vertex="1" parent="1">
                    <mxGeometry x="400" y="470" width="140" height="90" as="geometry"/>
                </mxCell>
                <mxCell id="FP1shLl4b8RgJX5i1YDF-88" style="edgeStyle=orthogonalEdgeStyle;jumpStyle=arc;html=1;entryX=0.5;entryY=1;entryDx=0;entryDy=0;startArrow=none;startFill=0;" edge="1" parent="1" source="FP1shLl4b8RgJX5i1YDF-87" target="FP1shLl4b8RgJX5i1YDF-85">
                    <mxGeometry relative="1" as="geometry"/>
                </mxCell>
                <mxCell id="FP1shLl4b8RgJX5i1YDF-87" value="" style="shape=actor;whiteSpace=wrap;html=1;" vertex="1" parent="1">
                    <mxGeometry x="450" y="640" width="40" height="60" as="geometry"/>
                </mxCell>
                <mxCell id="FP1shLl4b8RgJX5i1YDF-90" style="edgeStyle=orthogonalEdgeStyle;jumpStyle=arc;html=1;entryX=0;entryY=0.5;entryDx=0;entryDy=0;startArrow=none;startFill=0;" edge="1" parent="1" source="FP1shLl4b8RgJX5i1YDF-89" target="60">
                    <mxGeometry relative="1" as="geometry"/>
                </mxCell>
                <mxCell id="FP1shLl4b8RgJX5i1YDF-89" value="" style="shape=actor;whiteSpace=wrap;html=1;" vertex="1" parent="1">
                    <mxGeometry x="-64" y="109" width="40" height="60" as="geometry"/>
                </mxCell>
            </root>
        </mxGraphModel>
    </diagram>
</mxfile>